<svg width="25" height="24" viewBox="0 0 25 24" fill="none" xmlns="http://www.w3.org/2000/svg">
<path d="M12.0623 0C9.10035 0 6.38531 1.06762 4.28192 2.83986C3.75608 3.27758 3.27315 3.76868 2.82242 4.29182C1.06244 6.38434 0 9.07473 0 12C0 14.4875 0.761923 16.8043 2.07118 18.7153C2.51117 19.3559 3.00484 19.9537 3.55216 20.4982C5.73067 22.6655 8.74621 24 12.0623 24C18.7158 24 24.1246 18.6192 24.1246 12C24.1246 5.38078 18.7158 0 12.0623 0ZM1.93167 12C1.93167 9.34164 2.97263 6.92883 4.66822 5.12456L9.85161 7.46263C10.0341 7.54804 10.1413 7.71886 10.1413 7.91103V8.97865C10.1413 9.19217 9.99109 9.39502 9.78719 9.45907L8.51014 9.83274C7.83405 10.0249 7.38333 10.6335 7.38333 11.3274C7.38333 12.0214 7.83403 12.6299 8.49939 12.8327L14.1657 14.5409C14.3803 14.605 14.5198 14.7972 14.5198 15.0107V16.9751C14.5198 17.2313 14.3267 17.4448 14.0691 17.4662L4.31409 18.4698C2.8224 16.7295 1.93167 14.4662 1.93167 12ZM12.0623 22.0783C9.88376 22.0783 7.86623 21.3843 6.20284 20.2206L14.2623 19.3879C15.5072 19.2598 16.4408 18.2242 16.4408 16.9858V15.0214C16.4408 13.9537 15.7432 13.0142 14.713 12.7046L10.1843 11.3381L10.3238 11.2954C11.3433 10.9964 12.0623 10.0463 12.0623 8.97865V7.91103C12.0623 6.96085 11.5042 6.10676 10.635 5.71174L6.26723 3.73665C7.90916 2.59431 9.90522 1.92171 12.0623 1.92171C17.6534 1.92171 22.1929 6.43772 22.1929 12C22.1929 17.5623 17.6534 22.0783 12.0623 22.0783Z" fill="#161514"/>
</svg>
